<?xml version="1.0" encoding="utf-8"?>
<!-- Generator: Adobe Illustrator 22.0.1, SVG Export Plug-In . SVG Version: 6.00 Build 0)  -->
<svg version="1.1" id="Layer_1" xmlns="http://www.w3.org/2000/svg" xmlns:xlink="http://www.w3.org/1999/xlink" x="0px" y="0px"
	 viewBox="0 0 576 576" style="enable-background:new 0 0 576 576;" xml:space="preserve">
<style type="text/css">
	.st0{fill:#9E9E9E;}
	.st1{fill:#424242;}
	.st2{opacity:0.2;fill:#FFFFFF;enable-background:new    ;}
	.st3{opacity:0.2;fill:#202020;enable-background:new    ;}
	.st4{fill:#F44336;}
	.st5{fill:#FFFFFF;}
	.st6{fill:url(#finish_1_);}
	.st7{fill:#FFCC80;}
	.st8{opacity:0.5;}
	.st9{fill:#E65100;}
	.st10{fill:#757576;}
	.st11{fill:#EF6C00;}
	.st12{opacity:0.1;}
	.st13{opacity:0.2;}
	.st14{opacity:0.5;fill:#212121;enable-background:new    ;}
	.st15{fill:none;stroke:#9E9E9E;stroke-width:2;stroke-miterlimit:10;}
	.st16{fill:#B9F6CA;stroke:#9E9E9E;stroke-width:2;stroke-miterlimit:10;}
	.st17{fill:#BDBDBD;}
</style>
<path id="topmachinepart" class="st0" d="M362.8,403.4H213.1c-18.9,0-34.4-15.5-34.4-34.4V167.3c0-18.9,15.5-34.4,34.4-34.4h150
	c18.9,0,34.4,15.5,34.4,34.4V369C397.2,387.9,381.7,403.4,362.8,403.4z"/>
<g id="logo">
	<path class="st1" d="M234.9,252.5l-27-152.9c-1.4-8,4-15.5,11.8-16.9l103.2-18.1c8-1.4,15.5,4,16.9,11.8l27,152.9
		c1.4,8-4,15.5-11.8,16.9l-103.2,18.1C243.7,265.7,236.3,260.3,234.9,252.5z"/>
	<path id="toptint" class="st2" d="M366.8,228.1L340.1,77.3c-1.4-8.3-9.5-14.1-17.8-12.6l-1.1,0.3c8.3-1.4,16.3,4.3,17.8,12.6
		l26.7,151.1c1.4,8.3-4.3,16.3-12.6,17.8l1.1-0.3C362.5,244.8,368.2,236.7,366.8,228.1z"/>
	<path id="bottomtint" class="st3" d="M234.9,251.7l-26.7-151.1c-1.4-8.3,4.3-16.3,12.6-17.8l-1.1,0.3c-8.3,1.4-14.1,9.5-12.6,17.8
		l26.4,150.9c1.4,8.3,9.5,14.1,17.8,12.6l1.1-0.3C244.3,265.4,236.3,260,234.9,251.7z"/>
	
		<rect id="screen_1_" x="235.4" y="85.6" transform="matrix(0.9848 -0.1734 0.1734 0.9848 -24.1376 52.3629)" class="st4" width="104.4" height="157.4"/>
	<path class="st1" d="M197.6,181.7l-0.3-1.7c-0.9-4.3,2.3-8.6,6.6-9.5l20.1-3.4c4.3-0.9,8.6,2.3,9.5,6.6l0.3,1.7
		c0.9,4.3-2.3,8.6-6.6,9.5l-20.1,3.4C202.4,189.1,198.1,186,197.6,181.7z"/>
	<g>
		
			<image style="overflow:visible;opacity:0.2;enable-background:new    ;" width="34" height="50" xlink:href="F4464B13.png"  transform="matrix(2.8679 0 0 2.8679 167.4545 120.3079)">
		</image>
		<g>
			<path class="st1" d="M201.6,209.5l-10-57.4c-0.6-3.7,2-7.5,5.7-8l1.4-0.3c3.7-0.6,7.5,2,8,5.7l10,57.4c0.6,3.7-2,7.5-5.7,8
				l-1.4,0.3C205.9,215.8,202.4,213.5,201.6,209.5z"/>
		</g>
	</g>
	<path id="basetint" class="st3" d="M201.6,208.9l-9.8-55.9c-0.6-4,1.7-7.7,5.7-8.9c-0.3,0-0.3,0-0.6,0c-4.3,0.9-6.9,4.9-6.3,8.9
		l9.8,56.2c0.9,4.3,4.9,6.9,8.9,6.3c0.3,0,0.3,0,0.6-0.3C205.9,215.5,202.2,212.9,201.6,208.9z"/>
	<path id="playbutton" class="st5" d="M291.9,189.1l-37.3-44.5l56.5-10.3L291.9,189.1z"/>
	
		<linearGradient id="finish_1_" gradientUnits="userSpaceOnUse" x1="-184.0681" y1="1524.9092" x2="-33.8351" y2="1374.6761" gradientTransform="matrix(0.1734 0.9848 0.9848 -0.1734 -1121.5139 523.1749)">
		<stop  offset="0" style="stop-color:#FFFFFF;stop-opacity:0.1"/>
		<stop  offset="1" style="stop-color:#FFFFFF;stop-opacity:0"/>
	</linearGradient>
	<path id="finish_2_" class="st6" d="M366.8,228.1L340.1,77.3c-1.4-8.3-9.5-14.1-17.8-12.6L220.8,82.5c-8.3,1.4-14.1,9.5-12.6,17.8
		l11.8,67.1l-9.5,2.9l-3.4-19.5c-0.9-4.3-4.9-6.9-8.9-6.3c-4.3,0.9-6.9,4.9-6.3,8.9l4.3,25l1.1,5.7l4.3,25c0.9,4.3,4.9,6.9,8.9,6.3
		c4.3-0.9,6.9-4.9,6.3-8.9l-3.4-19.2l9.5-2.6l11.8,67.1c1.4,8.3,9.5,14.1,17.8,12.6l101.5-17.8C362.5,244.8,368.2,236.7,366.8,228.1
		z"/>
</g>
<path id="machine" class="st1" d="M436.2,487.4H139.6c-6.9,0-12.6-5.7-12.6-12.6V218.7c0-6.9,5.7-12.6,12.6-12.6h296.8
	c6.9,0,12.6,5.7,12.6,12.6v256.1C448.8,482,443.1,487.4,436.2,487.4z"/>
<g id="mainlogo">
	<path class="st7" d="M360.7,321.4H214.6c2.8,53.3,1.5,106.7-3.5,159.7c-0.9,8,5.2,15.2,12.9,16.3c41.9,5.2,84,10.3,125.9,15.5
		c8,1.1,15.5-5.7,16.3-14.9c5.4-55.1,6.9-110.1,5.2-165.5C367.8,328.8,364.3,325.1,360.7,321.4z"/>
	<g id="_x33_subs">
		<g id="subs_36_" class="st8">
			<path class="st9" d="M301.7,421.7c0-2.6,2-4.6,4.3-4.3c2.3,0,4,2.3,4,4.9c0,2.6-2,4.6-4.3,4.3S301.7,424.3,301.7,421.7z"/>
			<path class="st9" d="M229.4,414.6c21.8,0.9,43.6,1.7,65.4,2.6c1.1,0,2,0.9,1.7,2c0,1.7,0,3.4-0.3,4.9c0,1.1-0.9,2-2,2
				c-21.8-1.1-43.6-2-65.4-3.2c-1.1,0-2-0.9-1.7-2c0-1.4,0-3.2,0.3-4.6C227.4,415.1,228.5,414.3,229.4,414.6z"/>
			<path class="st9" d="M236.3,405.4c0,2.3-2,4.3-4.3,4c-2.3,0-4.3-2-4-4.3c0-2.3,2-4.3,4.3-4C234.6,401.1,236.3,402.8,236.3,405.4z
				"/>
			<path class="st9" d="M308.6,412c-21.8-0.6-43.6-1.4-65.4-2c-1.1,0-2-0.9-2-2c0-1.4,0-3.2,0-4.6c0-1.1,0.9-2,2-2
				c21.8,0.6,43.6,1.1,65.4,1.4c1.1,0,2,0.9,2,2c0,1.7,0,3.4,0,4.9C310.6,411.1,309.7,412,308.6,412z"/>
		</g>
		<g id="subs_35_" class="st8">
			<path class="st9" d="M303.7,379.6c0-2.6,2-4.6,4.3-4.6s4.3,2,4.3,4.6c0,2.6-2,4.6-4.3,4.6S303.7,382.1,303.7,379.6z"/>
			<path class="st9" d="M231.4,375.3c21.8,0,43.6,0,65.4-0.3c1.1,0,2,0.9,2,2c0,1.7,0,3.4,0,4.9c0,1.1-0.9,2-2,2
				c-21.8,0-43.6-0.3-65.4-0.3c-1.1,0-2-0.9-2-2c0-1.4,0-3.2,0-4.6C229.4,376.1,230.3,375.3,231.4,375.3z"/>
			<path class="st9" d="M237.7,365.8c0,2.3-1.7,4.3-4.3,4.3c-2.3,0-4.3-2-4.3-4.3c0-2.3,1.7-4.3,4.3-4.3
				C235.7,361.5,237.7,363.5,237.7,365.8z"/>
			<path class="st9" d="M310.3,369.5c-21.8,0.3-43.6,0.3-65.4,0.6c-1.1,0-2-0.9-2-2c0-1.4,0-3.2,0-4.6c0-1.1,0.9-2,2-2
				c21.8-0.3,43.6-0.6,65.4-1.1c1.1,0,2,0.9,2,2c0,1.7,0,3.4,0,5.2C312.3,368.7,311.4,369.5,310.3,369.5z"/>
		</g>
		<g id="subs_34_" class="st8">
			<path class="st9" d="M303.1,334.8c0-2.6,1.7-4.6,4-4.9c2.3,0,4.3,2,4.3,4.3c0,2.6-1.7,4.6-4,4.9S303.1,337.4,303.1,334.8z"/>
			<path class="st9" d="M230.5,333.7c21.8-0.9,43.6-2,65.4-2.9c1.1,0,2,0.9,2,2c0,1.7,0,3.4,0.3,4.9c0,1.1-0.9,2-1.7,2
				c-21.8,0.9-43.6,1.7-65.4,2.3c-1.1,0-2-0.9-2-1.7c0-1.4,0-3.2-0.3-4.6C228.5,334.5,229.4,333.7,230.5,333.7z"/>
			<path class="st9" d="M236.6,323.9c0,2.3-1.7,4.3-4,4.6c-2.3,0-4.3-1.7-4.3-4s1.7-4.3,4-4.6C234.6,319.6,236.3,321.3,236.6,323.9z
				"/>
			<path class="st9" d="M309.1,324.5c-21.8,1.1-43.6,2.3-65.4,3.2c-1.1,0-2-0.9-2-1.7c0-1.4-0.3-3.2-0.3-4.6c0-1.1,0.9-2,1.7-2
				c21.8-1.1,43.6-2.6,65.4-3.7c1.1,0,2,0.9,2,2c0,1.7,0.3,3.4,0.3,4.9C311.1,323.4,310.3,324.5,309.1,324.5z"/>
		</g>
	</g>
	<g id="CC_13_" class="st8">
		<g>
			<g>
				<path id="C_78_" class="st10" d="M265.8,453.6c-0.6,10-1.4,20.4-2.6,30.4c-0.6,5.4,3.4,10.6,8.6,11.2c3.2,0.3,6.3,0.9,9.8,1.1
					c5.4,0.6,10-3.4,10.6-9.2c0.3-2.6,0.6-5.2,0.6-7.7c-3.2-0.3-6.6-0.6-9.8-0.9c-0.3,2.6-0.6,5.2-0.6,7.7c-3.2-0.3-6.6-0.6-9.8-1.1
					c0.9-10.3,1.7-20.4,2.6-30.7c3.2,0.3,6.6,0.6,9.8,0.9c-0.3,2.6-0.3,5.2-0.6,7.7c3.2,0.3,6.6,0.6,9.8,0.9
					c0.3-2.6,0.3-5.2,0.6-7.7c0.3-5.7-3.7-10.6-9.2-11.2c-3.2-0.3-6.6-0.3-9.8-0.6C271,443.5,266.4,447.8,265.8,453.6z"/>
				<path id="C_77_" class="st10" d="M227.1,450.7c-0.6,9.8-1.4,19.5-2.3,29.3c-0.6,5.4,3.4,10.3,8.6,10.9c3.2,0.3,6.3,0.9,9.8,1.1
					c5.4,0.6,10-3.4,10.6-8.9c0.3-2.6,0.6-4.9,0.6-7.5c-3.2-0.3-6.6-0.6-9.8-0.9c-0.3,2.6-0.6,4.9-0.6,7.5c-3.2-0.3-6.6-0.6-9.8-1.1
					c0.9-9.8,1.7-19.8,2.3-29.5c3.2,0.3,6.6,0.6,9.8,0.9c-0.3,2.6-0.3,4.9-0.6,7.5c3.2,0.3,6.6,0.6,9.8,0.9c0.3-2.6,0.3-5.2,0.6-7.5
					c0.3-5.4-3.7-10.3-9.2-10.6c-3.2-0.3-6.6-0.3-9.8-0.6C232,441.2,227.4,445.2,227.1,450.7z"/>
			</g>
			<g>
				<path id="C_70_" class="st11" d="M265.8,453.6c-0.6,10-1.4,20.4-2.6,30.4c-0.6,5.4,3.4,10.6,8.6,11.2c3.2,0.3,6.3,0.9,9.8,1.1
					c5.4,0.6,10-3.4,10.6-9.2c0.3-2.6,0.6-5.2,0.6-7.7c-3.2-0.3-6.6-0.6-9.8-0.9c-0.3,2.6-0.6,5.2-0.6,7.7c-3.2-0.3-6.6-0.6-9.8-1.1
					c0.9-10.3,1.7-20.4,2.6-30.7c3.2,0.3,6.6,0.6,9.8,0.9c-0.3,2.6-0.3,5.2-0.6,7.7c3.2,0.3,6.6,0.6,9.8,0.9
					c0.3-2.6,0.3-5.2,0.6-7.7c0.3-5.7-3.7-10.6-9.2-11.2c-3.2-0.3-6.6-0.3-9.8-0.6C271,443.5,266.4,447.8,265.8,453.6z"/>
				<path id="C_69_" class="st11" d="M227.1,450.7c-0.6,9.8-1.4,19.5-2.3,29.3c-0.6,5.4,3.4,10.3,8.6,10.9c3.2,0.3,6.3,0.9,9.8,1.1
					c5.4,0.6,10-3.4,10.6-8.9c0.3-2.6,0.6-4.9,0.6-7.5c-3.2-0.3-6.6-0.6-9.8-0.9c-0.3,2.6-0.6,4.9-0.6,7.5c-3.2-0.3-6.6-0.6-9.8-1.1
					c0.9-9.8,1.7-19.8,2.3-29.5c3.2,0.3,6.6,0.6,9.8,0.9c-0.3,2.6-0.3,4.9-0.6,7.5c3.2,0.3,6.6,0.6,9.8,0.9c0.3-2.6,0.3-5.2,0.6-7.5
					c0.3-5.4-3.7-10.3-9.2-10.6c-3.2-0.3-6.6-0.3-9.8-0.6C232,441.2,227.4,445.2,227.1,450.7z"/>
			</g>
		</g>
		<g>
			<g class="st12">
				<path class="st11" d="M283.3,479.4c3.2,0.3,6.6,0.6,9.8,0.9c0-0.3,0-0.6,0-1.1c-3.2-0.3-6.6-0.6-9.8-0.9
					C283.6,478.5,283.3,478.8,283.3,479.4z"/>
				<path class="st11" d="M282.7,487.1c0-0.3,0-0.6,0-1.1c-3.2-0.3-6.6-0.6-9.8-1.1c0,0.3,0,0.6,0,1.1
					C276.1,486.3,279.6,486.5,282.7,487.1z"/>
				<path class="st11" d="M285.9,444.7c-3.2-0.3-6.6-0.3-9.8-0.6c-5.4-0.3-10,4-10.3,9.5c0,0.3,0,0.6,0,1.1
					c0.3-5.7,4.9-9.8,10.3-9.5c3.2,0.3,6.6,0.3,9.8,0.6c5.4,0.3,9.5,5.2,9.2,11.2c0-0.3,0-0.6,0-1.1
					C295.4,449.8,291.3,445,285.9,444.7z"/>
			</g>
			<g class="st12">
				<path class="st11" d="M245.2,475.4c3.2,0.3,6.6,0.6,9.8,0.9c0-0.3,0-0.6,0-1.1c-3.2-0.3-6.6-0.6-9.8-0.9
					C245.2,474.8,245.2,475.1,245.2,475.4z"/>
				<path class="st11" d="M244.3,482.8c0-0.3,0-0.6,0-1.1c-3.2-0.3-6.6-0.6-9.8-1.1c0,0.3,0,0.6,0,1.1
					C238,482.2,241.2,482.5,244.3,482.8z"/>
				<path class="st11" d="M247.5,442.1c-3.2-0.3-6.6-0.3-9.8-0.6c-5.4-0.3-10,3.7-10.3,9.2c0,0.3,0,0.6,0,1.1
					c0.3-5.4,4.9-9.5,10.3-9.2c3.2,0.3,6.6,0.3,9.8,0.6c5.4,0.3,9.5,5.2,9.2,10.6c0-0.3,0-0.6,0-1.1
					C256.9,447.2,252.9,442.4,247.5,442.1z"/>
			</g>
			<g class="st13">
				<path class="st11" d="M285.3,455c-3.2-0.3-6.6-0.6-9.8-0.9c0,0.3,0,0.6,0,1.1c3.2,0.3,6.6,0.6,9.8,0.9
					C285.3,455.6,285.3,455.3,285.3,455z"/>
				<path class="st11" d="M281.9,496.3c-3.2-0.3-6.3-0.9-9.8-1.1c-5.4-0.6-9.2-5.7-8.6-11.2c0,0.3,0,0.6,0,1.1
					c-0.6,5.4,3.4,10.6,8.6,11.2c3.2,0.3,6.3,0.9,9.8,1.1c5.4,0.6,10-3.4,10.6-9.2c0-0.3,0-0.6,0-1.1
					C291.9,492.6,287,496.9,281.9,496.3z"/>
				<path class="st11" d="M284.8,463.9c3.2,0.3,6.6,0.6,9.8,0.9c0-0.3,0-0.6,0-1.1c-3.2-0.3-6.6-0.6-9.8-0.9
					C284.8,463,284.8,463.3,284.8,463.9z"/>
			</g>
			<g class="st13">
				<path class="st11" d="M246.3,452.1c-3.2-0.3-6.6-0.6-9.8-0.9c0,0.3,0,0.6,0,1.1c3.2,0.3,6.6,0.6,9.8,0.9
					C246.3,452.7,246.3,452.4,246.3,452.1z"/>
				<path class="st11" d="M242.9,491.7c-3.2-0.3-6.3-0.9-9.8-1.1c-5.4-0.6-9.2-5.4-8.6-10.9c0,0.3,0,0.6,0,0.9
					c-0.6,5.4,3.4,10.3,8.6,10.9c3.2,0.3,6.3,0.9,9.8,1.1c5.4,0.6,10-3.4,10.6-8.9c0-0.3,0-0.6,0-1.1
					C253.2,488.3,248.3,492.3,242.9,491.7z"/>
				<path class="st11" d="M245.7,460.4c3.2,0.3,6.6,0.6,9.8,0.9c0-0.3,0-0.6,0-1.1c-3.2-0.3-6.6-0.6-9.8-0.9
					C245.7,459.9,245.7,460.2,245.7,460.4z"/>
			</g>
		</g>
	</g>
</g>
<g id="subsejecter">
	<g>
		<path class="st0" d="M377.4,338h-179c-5.4,0-10-4.6-10-10v-2.3c0-5.4,4.6-10,10-10h178.7c5.4,0,10,4.6,10,10v2.3
			C387.4,333.4,382.8,338,377.4,338z"/>
	</g>
</g>
<g id="Power_Buton">
	<path class="st14" d="M184.4,253.7H156c-2.6,0-4.6-2-4.6-4.6v-22.7c0-2.6,2-4.6,4.6-4.6h28.4c2.6,0,4.6,2,4.6,4.6v22.7
		C189,251.7,187,253.7,184.4,253.7z"/>
	<circle class="st15" cx="170.3" cy="238.5" r="7.2"/>
	<path class="st16" d="M170.3,239.3v-12.9V239.3z"/>
</g>
<g id="buttonsdisplay">
	<path class="st0" d="M426.4,244.8H361c-3.2,0-5.7-2.6-5.7-5.7v-1.1c0-3.2,2.6-5.7,5.7-5.7h65.4c3.2,0,5.7,2.6,5.7,5.7v1.4
		C432.2,242.2,429.6,244.8,426.4,244.8z"/>
	<circle class="st17" cx="364.8" cy="238.5" r="3.2"/>
	<circle class="st17" cx="390.6" cy="238.5" r="3.2"/>
	
		<ellipse transform="matrix(0.1602 -0.9871 0.9871 0.1602 81.7894 573.0632)" class="st17" cx="377.7" cy="238.5" rx="3.2" ry="3.2"/>
</g>
</svg>
