<?xml version="1.0" encoding="utf-8"?>
<!-- Generator: Adobe Illustrator 22.0.1, SVG Export Plug-In . SVG Version: 6.00 Build 0)  -->
<svg version="1.1" id="Layer_1" xmlns="http://www.w3.org/2000/svg" xmlns:xlink="http://www.w3.org/1999/xlink" x="0px" y="0px"
	 viewBox="0 0 256 256" style="enable-background:new 0 0 256 256;" xml:space="preserve">
<style type="text/css">
	.st0{fill:#424242;}
	.st1{fill:#212121;}
	.st2{fill:#F44336;}
	.st3{fill:#FFCC80;}
	.st4{opacity:0.5;}
	.st5{fill:#E65100;}
	.st6{fill:#757576;}
	.st7{fill:#EF6C00;}
	.st8{opacity:0.1;}
	.st9{opacity:0.2;}
	.st10{fill:#9E9E9E;}
	.st11{opacity:0.5;fill:#212121;enable-background:new    ;}
	.st12{fill:none;stroke:#9E9E9E;stroke-width:2;stroke-miterlimit:10;}
	.st13{fill:#B9F6CA;stroke:#9E9E9E;stroke-width:2;stroke-miterlimit:10;}
	.st14{fill:#A7FFEB;}
	.st15{fill:#BDBDBD;}
</style>
<g id="logo_1_">
	<g id="beacon">
		<path class="st0" d="M145.1,93.2c2,0-31.6,0.7-34.1-0.6c2-9,4-18.6,5.9-27.6c2.2-10.1,4.5-20.3,6.7-30.4c0.3-1.3,0.3-2-0.9-2.9
			c-2.8-2.2-3.5-6.1-2-9.3c1.5-3.1,4.9-4.9,8.4-4.4c3.5,0.6,6.2,3.3,6.6,6.8c0.3,3.1-0.8,5.6-3.2,7.4c-0.6,0.4-0.6,0.8-0.5,1.4
			c1.8,8,3.6,16.1,5.4,24.1c1.9,8.6,3.8,17.1,5.6,25.7c0.6,2.9,1.3,5.6,1.9,8.5C145,92,145,92.8,145.1,93.2z M138.5,76
			c-0.1-0.1-0.1-0.3-0.1-0.3c-0.3-0.3-0.5-0.8-0.8-1c-3.1-1.7-6.1-3.5-9.1-5.2c-0.3-0.2-0.6-0.2-1,0c-1,0.6-2,1.1-2.9,1.7
			c-2.1,1.2-4.2,2.4-6.3,3.6c-0.8,0.4-0.8,1.3-0.1,1.6c3.1,1.8,6.3,3.6,9.4,5.4c0.2,0.1,0.5,0.1,0.7,0.1c3.3-1.8,6.5-3.7,9.8-5.5
			C138.1,76,138.3,76,138.5,76z M120.8,61.3c0.1,0.1,0.2,0.3,0.3,0.4c2.1,1.3,4.3,2.4,6.4,3.6c0.2,0.1,0.5,0.1,0.7,0
			c2.2-1.2,4.3-2.4,6.4-3.7c0.1-0.1,0.3-0.5,0.3-0.6c-0.3-1.5-0.6-2.9-1-4.3c-0.1-0.2-0.2-0.5-0.4-0.6c-1.7-1-3.5-2-5.2-3
			c-0.2-0.1-0.6-0.1-0.8-0.1c-1.8,1-3.6,2-5.3,3c-0.1,0.1-0.3,0.2-0.4,0.3C121.6,58.1,121.2,59.6,120.8,61.3z M128,33.7
			c-0.3,0.1-0.9-0.4-1.1,0.3c-0.9,4.2-1.8,8.4-2.8,12.5c-0.1,0.3,0.1,0.6,0.3,0.7c1,0.6,2.1,1.1,3.1,1.7c0.3,0.2,0.6,0.2,1,0
			c1-0.6,2-1.1,2.9-1.7c0.4-0.2,0.6-0.5,0.4-1c-0.9-3.9-1.7-7.9-2.6-11.8C129.1,33.9,128.9,33.3,128,33.7z M132.8,25.7
			c0-2.6-2.2-4.8-4.8-4.8c-2.7,0-4.9,2.2-4.9,4.9c0,2.6,2.2,4.9,4.9,4.8C130.6,30.6,132.8,28.4,132.8,25.7z M116.9,79.1
			c-0.8,3.5-1.5,6.8-2.3,10.4c3.5-2,6.8-3.9,10.2-5.9C122.1,82.1,119.6,80.6,116.9,79.1z M131,83.6c3.5,2,6.8,3.8,10.2,5.9
			c-0.8-3.6-1.5-6.9-2.3-10.4C136.3,80.6,133.7,82.1,131,83.6z M118.7,70.9c2.2-1.2,4.1-2.3,6.1-3.5c-1.7-1-3.2-1.8-4.7-2.7
			C119.6,66.7,119.2,68.6,118.7,70.9z M137,70.7c0.1-0.1,0.1-0.1,0.1-0.1c-0.4-2-0.8-3.9-1.3-6c-1.6,0.9-3.1,1.8-4.7,2.7
			C133.1,68.5,135,69.6,137,70.7z M124.8,51.1c-0.6-0.3-1-0.6-1.6-0.9c-0.1,0.7-0.3,1.3-0.4,2C123.6,51.8,124.2,51.5,124.8,51.1z
			 M133.1,52.3c-0.2-0.8-0.3-1.4-0.5-2.1c-0.6,0.3-1,0.6-1.5,0.9C131.7,51.5,132.3,51.8,133.1,52.3z"/>
		<polygon class="st1" points="127.9,85.3 135,89.5 121.8,89.5 		"/>
		<path class="st2" d="M111.5,14.9c0.7,0.7,1.4,1.4,2.1,2.1c-5.1,5.2-4.6,13.2,0.1,18c-0.3,0.3-0.8,0.6-1.1,1
			c-0.3,0.3-0.6,0.8-1,1.1C105.4,31.2,105.3,20.8,111.5,14.9z"/>
		<path class="st2" d="M142.9,17c0.7-0.7,1.4-1.4,2.1-2.1c5.6,5.2,6.5,15.7,0.1,22.1c-0.7-0.7-1.4-1.4-2.1-2.1
			C147.6,30,147.8,22.2,142.9,17z"/>
		<path class="st2" d="M118.2,30.2c-0.7,0.7-1.4,1.4-2.1,2.1c-3.6-3.2-3.5-9.6,0.1-12.8c0.7,0.7,1.3,1.4,2,2.2
			C116.1,24,115.8,27.5,118.2,30.2z"/>
		<path class="st2" d="M138.3,21.7c0.7-0.7,1.4-1.4,2.1-2.1c3.2,2.8,3.8,9.1,0.1,12.8c-0.7-0.7-1.4-1.4-2.1-2.2
			C140.4,27.8,140.6,24.3,138.3,21.7z"/>
	</g>
	<g id="mainlogo_1_">
		<g>
			<g>
				<path id="machine_12_" class="st0" d="M201.8,228.4H54.1c-3.4,0-6.3-2.9-6.3-6.3V94.6c0-3.4,2.9-6.3,6.3-6.3h147.8
					c3.4,0,6.3,2.9,6.3,6.3v127.5C208,225.8,205.2,228.4,201.8,228.4z"/>
				<g id="mainlogo_11_">
					<path class="st3" d="M164.2,145.8H91.5c1.4,26.5,0.8,53.1-1.7,79.5c-0.4,4,2.6,7.6,6.4,8.1c20.8,2.6,41.8,5.2,62.7,7.7
						c4,0.6,7.7-2.9,8.1-7.4c2.7-27.5,3.4-54.8,2.6-82.4C167.8,149.5,166,147.6,164.2,145.8z"/>
					<g id="_x33_subs_9_">
						<g id="subs_27_" class="st4">
							<path class="st5" d="M134.8,195.7c0-1.3,1-2.3,2.2-2.2c1.1,0,2,1.1,2,2.4c0,1.3-1,2.3-2.2,2.2
								C135.6,198,134.8,197,134.8,195.7z"/>
							<path class="st5" d="M98.8,192.2c10.9,0.4,21.7,0.8,32.5,1.3c0.6,0,1,0.4,0.8,1c0,0.8,0,1.7-0.1,2.4c0,0.6-0.4,1-1,1
								c-10.9-0.6-21.7-1-32.5-1.6c-0.6,0-1-0.4-0.8-1c0-0.7,0-1.6,0.1-2.3C97.8,192.4,98.4,192,98.8,192.2z"/>
							<path class="st5" d="M102.3,187.6c0,1.1-1,2.2-2.2,2c-1.1,0-2.2-1-2-2.2c0-1.1,1-2.2,2.2-2
								C101.4,185.4,102.3,186.3,102.3,187.6z"/>
							<path class="st5" d="M138.3,190.9c-10.9-0.3-21.7-0.7-32.5-1c-0.6,0-1-0.4-1-1c0-0.7,0-1.6,0-2.3c0-0.6,0.4-1,1-1
								c10.9,0.3,21.7,0.6,32.5,0.7c0.6,0,1,0.4,1,1c0,0.8,0,1.7,0,2.4C139.3,190.4,138.8,190.9,138.3,190.9z"/>
						</g>
						<g id="subs_26_" class="st4">
							<path class="st5" d="M135.8,174.8c0-1.3,1-2.3,2.2-2.3c1.2,0,2.2,1,2.2,2.3s-1,2.3-2.2,2.3
								C136.7,177.1,135.8,176,135.8,174.8z"/>
							<path class="st5" d="M99.8,172.6c10.9,0,21.7,0,32.5-0.1c0.6,0,1,0.4,1,1c0,0.8,0,1.7,0,2.4c0,0.6-0.4,1-1,1
								c-10.9,0-21.7-0.1-32.5-0.1c-0.6,0-1-0.4-1-1c0-0.7,0-1.6,0-2.3C98.8,173,99.3,172.6,99.8,172.6z"/>
							<path class="st5" d="M103,167.9c0,1.1-0.8,2.2-2.2,2.2c-1.1,0-2.2-1-2.2-2.2c0-1.2,0.8-2.2,2.2-2.2
								C102,165.7,103,166.7,103,167.9z"/>
							<path class="st5" d="M139.1,169.7c-10.9,0.1-21.7,0.1-32.5,0.3c-0.6,0-1-0.4-1-1c0-0.7,0-1.6,0-2.3c0-0.6,0.4-1,1-1
								c10.9-0.1,21.7-0.3,32.5-0.6c0.6,0,1,0.4,1,1c0,0.8,0,1.7,0,2.6C140.1,169.3,139.7,169.7,139.1,169.7z"/>
						</g>
						<g id="subs_25_" class="st4">
							<path class="st5" d="M135.5,152.5c0-1.3,0.8-2.3,2-2.4c1.1,0,2.2,1,2.2,2.2c0,1.3-0.8,2.3-2,2.4
								C136.5,154.8,135.5,153.7,135.5,152.5z"/>
							<path class="st5" d="M99.3,151.9c10.9-0.4,21.7-1,32.5-1.5c0.6,0,1,0.4,1,1c0,0.8,0,1.7,0.1,2.4c0,0.6-0.4,1-0.8,1
								c-10.9,0.4-21.7,0.8-32.5,1.1c-0.6,0-1-0.4-1-0.8c0-0.7,0-1.6-0.1-2.3C98.4,152.3,98.8,151.9,99.3,151.9z"/>
							<path class="st5" d="M102.4,147c0,1.1-0.8,2.2-2,2.3c-1.1,0-2.2-0.8-2.2-2s0.8-2.2,2-2.3C101.4,144.9,102.3,145.7,102.4,147z
								"/>
							<path class="st5" d="M138.5,147.3c-10.9,0.6-21.7,1.1-32.5,1.6c-0.6,0-1-0.4-1-0.8c0-0.7-0.1-1.6-0.1-2.3c0-0.6,0.4-1,0.8-1
								c10.9-0.6,21.7-1.3,32.5-1.8c0.6,0,1,0.4,1,1c0,0.8,0.1,1.7,0.1,2.4C139.5,146.7,139.1,147.3,138.5,147.3z"/>
						</g>
					</g>
					<g id="CC_9_" class="st4">
						<g>
							<g>
								<path id="C_48_" class="st6" d="M117,211.6c-0.3,4.9-0.7,10.2-1.3,15.1c-0.3,2.7,1.7,5.3,4.3,5.6c1.6,0.1,3.1,0.4,4.9,0.6
									c2.7,0.3,4.9-1.7,5.3-4.6c0.1-1.3,0.3-2.6,0.3-3.8c-1.6-0.1-3.3-0.3-4.9-0.4c-0.1,1.3-0.3,2.6-0.3,3.8
									c-1.6-0.1-3.3-0.3-4.9-0.6c0.4-5.2,0.8-10.2,1.3-15.3c1.6,0.1,3.3,0.3,4.9,0.4c-0.1,1.3-0.1,2.6-0.3,3.8
									c1.6,0.1,3.3,0.3,4.9,0.4c0.1-1.3,0.1-2.6,0.3-3.8c0.1-2.9-1.8-5.3-4.6-5.6c-1.6-0.1-3.3-0.1-4.9-0.3
									C119.5,206.5,117.2,208.7,117,211.6z"/>
								<path id="C_47_" class="st6" d="M97.7,210.2c-0.3,4.9-0.7,9.7-1.1,14.6c-0.3,2.7,1.7,5.2,4.3,5.4c1.6,0.1,3.1,0.4,4.9,0.6
									c2.7,0.3,4.9-1.7,5.3-4.5c0.1-1.3,0.3-2.4,0.3-3.8c-1.6-0.1-3.3-0.3-4.9-0.4c-0.1,1.3-0.3,2.4-0.3,3.8
									c-1.6-0.1-3.3-0.3-4.9-0.6c0.4-4.9,0.8-9.8,1.1-14.7c1.6,0.1,3.3,0.3,4.9,0.4c-0.1,1.3-0.1,2.4-0.3,3.8
									c1.6,0.1,3.3,0.3,4.9,0.4c0.1-1.3,0.1-2.6,0.3-3.8c0.1-2.7-1.8-5.2-4.6-5.3c-1.6-0.1-3.3-0.1-4.9-0.3
									C100.1,205.4,97.8,207.4,97.7,210.2z"/>
							</g>
							<g>
								<path id="C_46_" class="st7" d="M117,211.6c-0.3,4.9-0.7,10.2-1.3,15.1c-0.3,2.7,1.7,5.3,4.3,5.6c1.6,0.1,3.1,0.4,4.9,0.6
									c2.7,0.3,4.9-1.7,5.3-4.6c0.1-1.3,0.3-2.6,0.3-3.8c-1.6-0.1-3.3-0.3-4.9-0.4c-0.1,1.3-0.3,2.6-0.3,3.8
									c-1.6-0.1-3.3-0.3-4.9-0.6c0.4-5.2,0.8-10.2,1.3-15.3c1.6,0.1,3.3,0.3,4.9,0.4c-0.1,1.3-0.1,2.6-0.3,3.8
									c1.6,0.1,3.3,0.3,4.9,0.4c0.1-1.3,0.1-2.6,0.3-3.8c0.1-2.9-1.8-5.3-4.6-5.6c-1.6-0.1-3.3-0.1-4.9-0.3
									C119.5,206.5,117.2,208.7,117,211.6z"/>
								<path id="C_45_" class="st7" d="M97.7,210.2c-0.3,4.9-0.7,9.7-1.1,14.6c-0.3,2.7,1.7,5.2,4.3,5.4c1.6,0.1,3.1,0.4,4.9,0.6
									c2.7,0.3,4.9-1.7,5.3-4.5c0.1-1.3,0.3-2.4,0.3-3.8c-1.6-0.1-3.3-0.3-4.9-0.4c-0.1,1.3-0.3,2.4-0.3,3.8
									c-1.6-0.1-3.3-0.3-4.9-0.6c0.4-4.9,0.8-9.8,1.1-14.7c1.6,0.1,3.3,0.3,4.9,0.4c-0.1,1.3-0.1,2.4-0.3,3.8
									c1.6,0.1,3.3,0.3,4.9,0.4c0.1-1.3,0.1-2.6,0.3-3.8c0.1-2.7-1.8-5.2-4.6-5.3c-1.6-0.1-3.3-0.1-4.9-0.3
									C100.1,205.4,97.8,207.4,97.7,210.2z"/>
							</g>
						</g>
						<g>
							<g class="st8">
								<path class="st7" d="M125.7,224.4c1.6,0.1,3.3,0.3,4.9,0.4c0-0.1,0-0.3,0-0.6c-1.6-0.1-3.3-0.3-4.9-0.4
									C125.8,224,125.7,224.2,125.7,224.4z"/>
								<path class="st7" d="M125.3,228.3c0-0.1,0-0.3,0-0.6c-1.6-0.1-3.3-0.3-4.9-0.6c0,0.1,0,0.3,0,0.6
									C122,227.9,123.8,228,125.3,228.3z"/>
								<path class="st7" d="M126.9,207.2c-1.6-0.1-3.3-0.1-4.9-0.3c-2.7-0.1-4.9,2-5.2,4.7c0,0.1,0,0.3,0,0.6
									c0.1-2.9,2.4-4.9,5.2-4.7c1.6,0.1,3.3,0.1,4.9,0.3c2.7,0.1,4.7,2.6,4.6,5.6c0-0.1,0-0.3,0-0.6
									C131.7,209.7,129.6,207.3,126.9,207.2z"/>
							</g>
							<g class="st8">
								<path class="st7" d="M106.6,222.4c1.6,0.1,3.3,0.3,4.9,0.4c0-0.1,0-0.3,0-0.6c-1.6-0.1-3.3-0.3-4.9-0.4
									C106.6,222.1,106.6,222.3,106.6,222.4z"/>
								<path class="st7" d="M106.2,226.1c0-0.1,0-0.3,0-0.6c-1.6-0.1-3.3-0.3-4.9-0.6c0,0.1,0,0.3,0,0.6
									C103.1,225.8,104.7,226,106.2,226.1z"/>
								<path class="st7" d="M107.8,205.8c-1.6-0.1-3.3-0.1-4.9-0.3c-2.7-0.1-4.9,1.8-5.2,4.6c0,0.1,0,0.3,0,0.6
									c0.1-2.7,2.4-4.7,5.2-4.6c1.6,0.1,3.3,0.1,4.9,0.3c2.7,0.1,4.7,2.6,4.6,5.3c0-0.1,0-0.3,0-0.6
									C112.5,208.4,110.5,206,107.8,205.8z"/>
							</g>
							<g class="st9">
								<path class="st7" d="M126.6,212.3c-1.6-0.1-3.3-0.3-4.9-0.4c0,0.1,0,0.3,0,0.6c1.6,0.1,3.3,0.3,4.9,0.4
									C126.6,212.6,126.6,212.5,126.6,212.3z"/>
								<path class="st7" d="M125,232.9c-1.6-0.1-3.1-0.4-4.9-0.6c-2.7-0.3-4.6-2.9-4.3-5.6c0,0.1,0,0.3,0,0.6
									c-0.3,2.7,1.7,5.3,4.3,5.6c1.6,0.1,3.1,0.4,4.9,0.6c2.7,0.3,4.9-1.7,5.3-4.6c0-0.1,0-0.3,0-0.6
									C129.9,231,127.5,233.1,125,232.9z"/>
								<path class="st7" d="M126.4,216.7c1.6,0.1,3.3,0.3,4.9,0.4c0-0.1,0-0.3,0-0.6c-1.6-0.1-3.3-0.3-4.9-0.4
									C126.4,216.3,126.4,216.4,126.4,216.7z"/>
							</g>
							<g class="st9">
								<path class="st7" d="M107.2,210.8c-1.6-0.1-3.3-0.3-4.9-0.4c0,0.1,0,0.3,0,0.6c1.6,0.1,3.3,0.3,4.9,0.4
									C107.2,211.1,107.2,211,107.2,210.8z"/>
								<path class="st7" d="M105.5,230.6c-1.6-0.1-3.1-0.4-4.9-0.6c-2.7-0.3-4.6-2.7-4.3-5.4c0,0.1,0,0.3,0,0.4
									c-0.3,2.7,1.7,5.2,4.3,5.4c1.6,0.1,3.1,0.4,4.9,0.6c2.7,0.3,4.9-1.7,5.3-4.5c0-0.1,0-0.3,0-0.6
									C110.7,228.9,108.2,230.8,105.5,230.6z"/>
								<path class="st7" d="M106.9,215c1.6,0.1,3.3,0.3,4.9,0.4c0-0.1,0-0.3,0-0.6c-1.6-0.1-3.3-0.3-4.9-0.4
									C106.9,214.8,106.9,214.9,106.9,215z"/>
							</g>
						</g>
					</g>
				</g>
				<rect id="placeholder_12_" x="76.5" y="115.5" class="st0" width="104.1" height="33"/>
				<g id="subsejecter_9_">
					<g>
						<path class="st10" d="M172.5,154.1H83.4c-2.7,0-4.9-2.3-4.9-4.9v-1.2c0-2.7,2.3-4.9,4.9-4.9h89c2.7,0,4.9,2.3,4.9,4.9v1.1
							C177.5,151.8,175.2,154.1,172.5,154.1z"/>
					</g>
				</g>
				<g id="Power_Buton_9_">
					<path class="st11" d="M76.4,112H62.3c-1.3,0-2.3-1-2.3-2.3V98.5c0-1.3,1-2.3,2.3-2.3h14.1c1.3,0,2.3,1,2.3,2.3v11.3
						C78.7,111.1,77.7,112,76.4,112z"/>
					<circle class="st12" cx="69.4" cy="104.5" r="3.6"/>
					<path class="st13" d="M69.4,104.9v-6.4V104.9z"/>
				</g>
				<g id="buttonsdisplay_9_">
					<path class="st10" d="M196.9,107.7h-32.5c-1.6,0-2.9-1.3-2.9-2.9v-0.6c0-1.6,1.3-2.9,2.9-2.9h32.5c1.6,0,2.9,1.3,2.9,2.9v0.7
						C199.8,106.3,198.5,107.7,196.9,107.7z"/>
					<circle class="st14" cx="166.2" cy="104.5" r="1.6"/>
					<circle class="st15" cx="179" cy="104.5" r="1.6"/>
					<ellipse class="st15" cx="172.6" cy="104.5" rx="1.6" ry="1.6"/>
				</g>
			</g>
		</g>
	</g>
</g>
</svg>
